<?xml version="1.0" encoding="UTF-8"?>
<svg xmlns="http://www.w3.org/2000/svg" xmlns:xlink="http://www.w3.org/1999/xlink" viewBox="0 0 356.9 184.49">
  <defs>
    <linearGradient id="c" x1="178.4" y1="118.26" x2="178.4" y2=".14" gradientTransform="translate(0 167.89) scale(1 -1)" gradientUnits="userSpaceOnUse">
      <stop offset="0" stop-color="#017372"/>
      <stop offset="1" stop-color="#017372" stop-opacity="0"/>
    </linearGradient>
    <linearGradient id="d" x1="178" y1="53.2" x2="227" y2="53.2" gradientTransform="translate(0 167.89) scale(1 -1)" gradientUnits="userSpaceOnUse">
      <stop offset="0" stop-color="#065955"/>
      <stop offset="1" stop-color="#065955" stop-opacity="0"/>
    </linearGradient>
    <linearGradient id="f" x1="179.18" y1="145.49" x2="179.18" y2="184.49" gradientUnits="userSpaceOnUse">
      <stop offset="0" stop-color="#fff"/>
      <stop offset="1" stop-color="#231f20" stop-opacity="0"/>
    </linearGradient>
  </defs>
  <g id="a" data-name="Layer 2">
    <g id="b" data-name="Layer 1-2">
      <g>
        <path d="m224.5,80.93c-3.6-12-21.4-10.7-29.1-14.2-7.7-3.5-6.5-15-7.5-17.1h-18.8c-1,2,.2,13.6-7.5,17.1s-25.5,2.1-29.1,14.2c-2.4,3.7-2.4,15.86-2.4,15.86l-.1,70.96h96.8v-70.72c-.4-7.4-.3-9.4-2.3-16.1h0Z" style="fill: url(#c);"/>
        <path d="m224.5,80.79c-3.6-12-21.4-10.7-29.1-14.2-7.7-3.5-6.5-15-7.5-17.1h-9.9s-.2,16.3,7.5,19.7,25.5,2.1,29.1,14.2c1.88,6.25,1.59,14.03,1.59,14.03l-.1,24.02s-.9,58.52-.26,58.45c2.96-.35,11.17-.6,11.17-.6l-.1-82.5c-.5-7.3-.4-9.3-2.4-16h0Z" style="fill: url(#d);"/>
        <g>
          <polygon points="194.4 66.09 183.9 75.29 182.3 65.49 194.4 66.09" style="fill: #0a3a36;"/>
          <polygon points="162.6 66.19 173.3 75.29 174.5 65.49 162.6 66.19" style="fill: #0a3a36;"/>
          <polygon points="182.6 65.49 174.5 65.49 173.9 67.49 183.2 67.49 182.6 65.49" style="fill: #c6c5af;"/>
          <polygon points="174.5 65.49 173.9 67.49 174.3 67.69 174.5 65.49" style="fill: #aaa88f;"/>
          <polygon points="183.2 67.49 182.3 65.59 182.7 67.79 183.2 67.49" style="fill: #aaa88f;"/>
          <path d="m182.9,101.92l-.03-2.91-1.57-25.72h-5.1l-2.06,25.69v2.91c.69.7,1.96.64,3.76-.06,1.2,1.1,4.2,1.19,5,.09h0Z" style="fill: #fff;"/>
          <polygon points="176.2 73.49 181.3 73.39 181.4 74.79 176.2 73.49" style="fill: #3a3a38;"/>
          <polygon points="172.5 66.39 184.6 66.29 183.9 70.49 181.2 73.49 176.2 73.49 173.2 70.49 172.5 66.39" style="fill: #fff;"/>
          <path d="m174.5,65.49l-8.2-4.5s-1.1,1.5-3.8,5.2l10.1,7.3.9-4.8,1-3.2h0Z" style="fill: #017372;"/>
          <path d="m182.3,65.49l8.2-4.5s1.2,1.4,3.9,5.1l-10.3,7.4-.9-4.8-.9-3.2h0Z" style="fill: #017372;"/>
          <path d="m190.5,61.09l-8.2,4.5.6,1.8c.8.8,1.6,1.5,2.6,2,.9.4,1.9.7,3.1,1l5.9-4.2c-2.8-3.7-4-5.1-4-5.1h0Z" style="fill: #065955;"/>
        </g>
        <g>
          <ellipse cx="200.59" cy="37.79" rx="6.8" ry="3.7" transform="translate(127.87 228.51) rotate(-79.8)" style="fill: #cca483;"/>
          <ellipse cx="156.5" cy="37.79" rx="3.7" ry="6.8" transform="translate(-4.22 28.31) rotate(-10.2)" style="fill: #dbb491;"/>
          <path d="m199,15.09h-40.9s-11.5,46.7,20.4,51.2c32-4.5,20.5-51.2,20.5-51.2Z" style="fill: #dbb491;"/>
          <path d="m178.6,66.39c31.9-4.5,20.5-51.2,20.5-51.2h-4.8c1.3,19.5,3.1,29.9-4.4,41.2-6,8.9-11.3,10-11.3,10h0Z" style="fill: #cca483;"/>
          <path d="m189.1,17.59l-32.6,9c2.8,1.1,8.1,3.1,19.7,3.1,6.4,0,20.5-2,23.6-9.5l-10.7-2.6h0Z" style="fill: #cca483;"/>
          <path d="m198.9,10.79s-2.4-8.7-18.5-10.6c-12.8-1.5-23.1,6.5-37.7,4.7-.1,8.1,2,17.3,10,20.8-.1,3.4.1,7.9,3.5,11.6,0,0-.3-5.9.3-10.6,0,0,7.3,1.8,15.6,1.8,8.9,0,20.7-1.4,27.7-8.2,0,0,1.1,6.4,1.1,17,0,0,2.4-2.5,2.8-6.4.9-8.8,1.7-20.6-4.8-20.1h0Z" style="fill: #515151;"/>
        </g>
      </g>
    </g>
    <text transform="translate(27.2 145.49) scale(1.01 1)" style="fill: #fff; font-family: Menlo-Bold, Menlo; font-weight: 700;"><tspan x="0" y="0" style="font-size: 68.78px;">S3 </tspan><tspan x="124.23" y="0" style="font-size: 86px;">T</tspan><tspan x="176.01" y="0" style="font-size: 68.78px;">ube</tspan></text>
  </g>
  <g id="e" data-name="Layer 4">
    <rect x="172.91" y="145.49" width="12.54" height="39" style="fill: url(#f);"/>
  </g>
  <g id="g" data-name="Layer 3">
    <rect x="31.48" y="82.75" width="294.24" height="11.28" style="fill: #fff;"/>
  </g>
</svg>